<svg
  version="1.0"
  xmlns="http://www.w3.org/2000/svg"
  width="200"
  height="186"
  viewBox="0 0 300 186"
  preserveAspectRatio="xMidYMid meet"
>
  <defs>
    <linearGradient id="color-0">
      <stop style="stop-color: rgb(66, 133, 244);"></stop>
    </linearGradient>
    <linearGradient id="color-1">
      <stop style="stop-color: rgb(234, 67, 53);"></stop>
    </linearGradient>
    <linearGradient id="color-2">
      <stop style="stop-color: rgb(251, 188, 5);"></stop>
    </linearGradient>
    <linearGradient id="color-3">
      <stop style="stop-color: rgb(52, 168, 83);"></stop>
    </linearGradient>
  </defs>
  <g
    transform="translate(0.000000,186.000000) scale(0.100000,-0.100000)"
    fill="#cccccc"
    stroke="none"
  >
    <path
      d="M2060 1748 c15 -24 20 -51 20 -99 0 -82 -20 -151 -76 -260 -35 -68 -49 -86 -63 -82 -9 2 -28 -5 -42 -15 -21 -18 -23 -23 -13 -50 11 -29 8 -35 -54 -114 -92 -116 -315 -336 -455 -447 -65 -51 -115 -96 -113 -99 9 -8 146 105 315 257 80 73 246 254 305 333 16 21 32 35 37 32 15 -9 48 6 59 26 6 11 6 28 1 41 -6 18 3 44 40 119 54 106 85 228 75 293 -8 45 -32 97 -46 97 -5 0 -1 -15 10 -32z m-92 -487 c5 -32 -23 -54 -49 -40 -19 10 -26 49 -12 63 4 4 19 6 33 4 18 -2 26 -10 28 -27z"
      style="fill: url('#color-3'); stroke-width: 28px; stroke: url('#color-3');"></path>
    <path
      d="M1435 1554 c-11 -2 -45 -9 -75 -15 -59 -12 -214 -68 -207 -75 2 -3 53 12 113 32 112 38 234 54 306 40 19 -3 53 -22 74 -40 37 -32 39 -37 41 -95 1 -44 -5 -79 -22 -122 -80 -204 -360 -488 -665 -674 -111 -68 -152 -103 -65 -55 164 90 339 224 485 370 260 261 349 483 237 586 -46 43 -143 63 -222 48z"
      style=" fill: url('#color-0'); stroke-width: 28px; stroke: url('#color-0');"></path>
    <path
      d="M1015 1402 c-115 -62 -197 -113 -191 -119 3 -3 42 17 88 45 46 28 109 63 141 78 31 16 57 32 57 36 0 11 5 13 -95 -40z"
      style=" fill: url('#color-1'); stroke-width: 28px; stroke: url('#color-1');"></path>
    <path
      d="M1200 1326 c-121 -37 -224 -88 -359 -179 -268 -180 -501 -462 -501 -605 0 -43 33 -94 75 -116 70 -36 226 -15 374 50 81 36 55 39 -31 4 -318 -127 -480 -39 -359 195 118 227 429 489 721 606 104 42 180 53 250 35 29 -7 33 -6 22 5 -17 18 -137 21 -192 5z"
      style=" fill: url('#color-3'); stroke-width: 28px; stroke: url('#color-3');"></path>
    <path
      d="M1432 1223 c-1 -54 -34 -122 -100 -206 -25 -31 -43 -59 -41 -62 8 -7 97 109 125 163 28 54 43 135 26 146 -6 3 -10 -13 -10 -41z"
      style=" fill: url('#color-2'); stroke-width: 28px; stroke: url('#color-2');" ></path>
    <path
      d="M730 1225 c-7 -8 -8 -15 -2 -15 5 0 15 7 22 15 7 8 8 15 2 15 -5 0 -15 -7 -22 -15z"
      style=" fill: url('#color-2'); stroke-width: 28px; stroke: url('#color-2');"></path>
    <path
      d="M1205 1210 c-11 -4 -45 -13 -75 -20 -77 -17 -264 -110 -249 -124 2 -2 31 12 64 31 56 34 152 72 218 87 23 5 29 2 36 -17 11 -27 33 -39 57 -30 26 10 9 -52 -31 -112 -118 -183 -430 -367 -505 -300 -11 10 -20 27 -20 37 0 57 104 179 216 253 140 93 270 101 234 15 -33 -80 -136 -175 -238 -220 -25 -11 -43 -23 -39 -26 10 -10 114 47 171 95 99 81 151 178 113 209 -62 52 -212 -14 -360 -157 -99 -95 -132 -174 -91 -215 42 -42 181 -4 311 85 70 48 188 164 223 219 34 53 55 151 38 183 -9 18 -39 21 -73 7z m60 -30 c0 -18 -6 -26 -23 -28 -24 -4 -38 18 -28 44 3 9 15 14 28 12 17 -2 23 -10 23 -28z"
      style=" fill: url('#color-2'); stroke-width: 28px; stroke: url('#color-2');"></path>
    <path
      d="M614 1136 c-44 -36 -114 -96 -156 -135 -59 -55 -83 -71 -106 -71 -35 0 -55 -20 -50 -53 2 -16 -16 -46 -61 -103 -76 -93 -136 -182 -129 -189 3 -3 25 25 50 63 25 37 68 95 96 129 42 50 55 60 75 56 14 -3 35 0 47 7 18 10 22 18 18 48 -5 36 -1 40 91 124 53 48 124 108 159 134 34 25 62 48 62 50 0 12 -24 -3 -96 -60z m-236 -228 c32 -32 -18 -87 -53 -58 -28 23 -12 70 25 70 9 0 21 -5 28 -12z"
      style=" fill: url('#color-3'); stroke-width: 28px; stroke: url('#color-3');"></path>
    <path
      d="M778 995 c-107 -90 -219 -232 -218 -277 0 -7 15 14 33 47 32 59 148 186 237 258 25 20 41 36 35 36 -5 0 -45 -29 -87 -64z"
      style=" fill: url('#color-3'); stroke-width: 28px; stroke: url('#color-3');"></path>
    <path
      d="M975 1021 c-58 -29 -105 -62 -105 -75 0 -4 22 9 50 28 59 40 112 60 146 53 30 -5 32 9 2 17 -31 8 -26 9 -93 -23z"
      style=" fill: url('#color-0'); stroke-width: 28px; stroke: url('#color-0');"></path>
    <path
      d="M1185 864 c-33 -29 -55 -53 -50 -53 13 0 121 97 115 102 -3 3 -32 -19 -65 -49z"
      style=" fill: url('#color-1'); stroke-width: 28px; stroke: url('#color-1');"></path>
    <path
      d="M801 874 c-23 -30 -27 -74 -9 -92 15 -15 48 -16 48 -2 0 6 -9 10 -20 10 -31 0 -35 25 -11 70 24 46 21 51 -8 14z"
      style=" fill: url('#color-1'); stroke-width: 28px; stroke: url('#color-1');"></path>
    <path
      d="M950 699 c-186 -109 -322 -131 -377 -63 -13 16 -23 24 -23 17 0 -7 10 -24 23 -38 49 -57 170 -41 335 45 94 48 158 90 137 89 -5 0 -48 -23 -95 -50z"
      style=" fill: url('#color-0'); stroke-width: 28px; stroke: url('#color-0');"></path>
    <path
      d="M60 491 c-28 -75 -38 -154 -27 -206 9 -46 56 -99 107 -123 67 -30 340 -16 340 17 0 5 -23 3 -52 -4 -183 -49 -329 -13 -374 92 -26 61 -15 136 41 266 4 9 3 17 -3 17 -5 0 -20 -27 -32 -59z"
      style=" fill: url('#color-0'); stroke-width: 28px; stroke: url('#color-0');"></path>
    <path
      d="M1177 530 c-98 -77 -442 -266 -520 -285 -26 -7 -47 -25 -29 -25 19 0 160 62 251 111 74 40 310 186 330 205 2 2 2 6 -1 9 -3 3 -17 -4 -31 -15z"
      style=" fill: url('#color-2'); stroke-width: 28px; stroke: url('#color-2');"></path>
    <path
      d="M545 200 c-3 -5 1 -10 9 -10 9 0 16 5 16 10 0 6 -4 10 -9 10 -6 0 -13 -4 -16 -10z"
      style=" fill: url('#color-1'); stroke-width: 28px; stroke: url('#color-1');"></path>
  </g>
</svg>
